# xmcd
#
# Track frame offsets: 
#        150
#        9642
#        17775
#        29725
#        38370
#        46615
#        61952
#        74452
#        93587
#        104637
#        114572
#        128172
#        141002
#        158345
#        171087
#
# Disc length: 2431 seconds
#
# Revision: 2
# Processed by: cddbd v1.4PL0 Copyright (c) Steve Scherf et al.
# Submitted via: ExactAudioCopy v0.95a3
#
DISCID=c1097d0f
DTITLE=Lost and Found - Just Pickin'
DYEAR=1994
DGENRE=Bluegrass
TTITLE0=Endicott Run
TTITLE1=Buckaroo
TTITLE2=Making Tracks
TTITLE3=Cricket On The Hearth
TTITLE4=Struttin' To Ferrum
TTITLE5=Arrowhead
TTITLE6=Home Sweet Home
TTITLE7=Ragtime Annie
TTITLE8=Banjo Riff
TTITLE9=Goofus
TTITLE10=When You And I Were Young, Maggie
TTITLE11=Chicken Reel
TTITLE12=The Old Rugged Cross
TTITLE13=Oh Dem Golden Slippers
TTITLE14=Red Wing
EXTD=
EXTT0=Dempsey Young  -  Poplar Camp Music...BMI
EXTT1=Bob Morris  -  Tree Pub. Co.  ...BMI
EXTT2=Lynwood Lunsford  -  Poplar Camp Music  ....BMI
EXTT3=Traditional  -  P.D.
EXTT4=Gene Parker  -  Fairystone Music....BMI
EXTT5=Tom Brumley  -  Warner-Tamerlame Pub. Corp....BMI
EXTT6=Traditional  -  P.D.
EXTT7=Traditional  -  P.D.
EXTT8=Reno - Mann - Norman  -  Fort Knox/Trio  Music...BMI
EXTT9=W.Harold - W.King - G.Kahn  -  EMI/April Music - Gilbert Keyes M
EXTT9=usic Co. - ASCAP
EXTT10=Written In Hamilton, Ontario in 1878 by a schoolteacher to his 
EXTT10=young deceased wife\nP.D.
EXTT11=traditional  -  P.D.
EXTT12=George Bennard  -  P.D.
EXTT13=Traditional  -  P.D.
EXTT14=T. Chattaway  -  Kerry Mills  -  P.D.
PLAYORDER=
